<svg xmlns="http://www.w3.org/2000/svg" viewBox="0 0 36.43 36.43"><defs><style>.cls-1{fill:#fff;}</style></defs><title>Asset 1</title><g id="Layer_2" data-name="Layer 2"><g id="Layer_1-2" data-name="Layer 1"><path class="cls-1" d="M19.28,36.43H17.15a1.31,1.31,0,0,0-.27-.06,17.14,17.14,0,0,1-8-2.51A17.89,17.89,0,0,1,0,19,17,17,0,0,1,2.16,9.64,17.92,17.92,0,0,1,15.08.28C15.76.15,16.46.09,17.15,0h2.13l.28.06a16.87,16.87,0,0,1,6.35,1.65A18,18,0,0,1,36.14,15c.14.7.2,1.41.29,2.11v2.13a2.84,2.84,0,0,0-.06.31,17.13,17.13,0,0,1-2.09,7.2,18,18,0,0,1-12.93,9.35C20.67,36.27,20,36.33,19.28,36.43Zm-1-15.94v-.06H14.79a6.09,6.09,0,0,0-6.07,4.93A2.87,2.87,0,0,0,9,27.85a7,7,0,0,0,1.5,1.38,13.42,13.42,0,0,0,16.35-.76,2.52,2.52,0,0,0,.92-2,6,6,0,0,0-5.31-5.92C21.09,20.38,19.66,20.49,18.24,20.49Zm-6-9a6,6,0,1,0,6-6A6.05,6.05,0,0,0,12.19,11.49Z"/></g></g></svg>